<?xml version="1.0" encoding="UTF-8"?>
<svg height="128px" viewBox="0 0 128 128" width="128px" xmlns="http://www.w3.org/2000/svg">
    <path d="m 125.289062 64.621094 c 0 32.59375 -26.863281 59.015625 -60 59.015625 c -33.136718 0 -60 -26.421875 -60 -59.015625 s 26.863282 -59.015625 60 -59.015625 c 33.136719 0 60 26.421875 60 59.015625 z m 0 0" fill="#d5d3cf"/>
    <path d="m 65.289062 7.574219 c 30.929688 0 56 24.660156 56 55.082031 v 1.964844 c 0 30.421875 -25.070312 55.082031 -56 55.082031 c -30.925781 0 -56 -24.660156 -56 -55.082031 v -1.964844 c 0 -30.421875 25.074219 -55.082031 56 -55.082031 z m 0 0" fill="#d5d3cf"/>
    <path d="m 125.289062 62.65625 c 0 32.59375 -26.863281 59.015625 -60 59.015625 c -33.136718 0 -60 -26.421875 -60 -59.015625 s 26.863282 -59.019531 60 -59.019531 c 33.136719 0 60 26.425781 60 59.019531 z m 0 0" fill="#f6f5f4"/>
    <path d="m 118.65625 63.125 c 0 29.332031 -24.175781 53.113281 -54 53.113281 c -29.820312 0 -54 -23.78125 -54 -53.113281 c 0 -29.335938 24.179688 -53.117188 54 -53.117188 c 29.824219 0 54 23.78125 54 53.117188 z m 0 0" fill="#1e1a34"/>
    <g fill="#bbbbbb">
        <path d="m 52.808594 74.691406 c -0.234375 -0.234375 -0.609375 -0.234375 -0.839844 0 l -1.484375 1.480469 c -0.507813 0.507813 -0.789063 1.1875 -0.789063 1.90625 s 0.28125 1.394531 0.789063 1.902344 c 0.507813 0.507812 1.183594 0.789062 1.902344 0.789062 s 1.394531 -0.28125 1.90625 -0.789062 c 1.046875 -1.050781 1.046875 -2.757813 0 -3.808594 z m 0 0"/>
        <path d="m 80.683594 51.324219 c 1.332031 -1.332031 1.484375 -3.46875 0.34375 -4.867188 c -0.679688 -0.832031 -1.6875 -1.308593 -2.765625 -1.308593 c -0.953125 0 -1.847657 0.367187 -2.519531 1.039062 l -2.089844 2.09375 c -0.667969 0.664062 -1.824219 0.664062 -2.488282 0 l -0.34375 -0.347656 c -0.5 -0.496094 -1.367187 -0.496094 -1.863281 0.003906 l -2.335937 2.335938 c -0.25 0.246093 -0.386719 0.578124 -0.386719 0.929687 s 0.136719 0.683594 0.386719 0.929687 l 1.167968 1.167969 l -9.65625 9.65625 c -0.925781 0.929688 -1.617187 2.078125 -2.015624 3.378907 c -0.152344 0.5 -0.367188 0.980468 -0.632813 1.433593 c -0.015625 0.03125 -0.027344 0.058594 -0.042969 0.089844 c -0.015625 0.019531 -0.03125 0.039063 -0.042968 0.0625 c -0.132813 0.214844 -0.273438 0.425781 -0.429688 0.625 c -0.171875 0.21875 -0.355469 0.429687 -0.554688 0.625 l -2.621093 2.621094 l 3.359375 3.359375 l 2.597656 -2.597656 c 0.804688 -0.804688 1.804688 -1.398438 2.890625 -1.722657 c 0.765625 -0.226562 1.484375 -0.578125 2.148437 -1.019531 c 0.445313 -0.296875 0.867188 -0.621094 1.246094 -1 l 6.445313 -6.449219 l 3.1875 -3.183593 l 1.167969 1.167968 c 0.25 0.25 0.578124 0.386719 0.929687 0.386719 s 0.683594 -0.136719 0.929687 -0.386719 l 2.339844 -2.335937 c 0.511719 -0.511719 0.511719 -1.347657 0 -1.863281 l -0.347656 -0.34375 c -0.332031 -0.332032 -0.511719 -0.773438 -0.511719 -1.242188 c 0 -0.472656 0.179688 -0.910156 0.511719 -1.242188 z m -11.882813 11.039062 h -8.394531 l 8.222656 -8.222656 l 4.199219 4.199219 z m 0 0"/>
    </g>
</svg>
